<svg xmlns="http://www.w3.org/2000/svg" width="184" height="33" viewBox="0 0 184 33"><defs><style>.a{fill:#fff;}.b{fill:#ea2340;}</style></defs><circle class="a" cx="16.5" cy="16.5" r="16.5" transform="translate(151)"/><g transform="translate(0 1.316)"><g transform="translate(0 0)"><g transform="translate(153.694 0.776)"><path class="b" d="M478.3,455.194a14.343,14.343,0,0,0-10.991,5.113c1.232-.06,2.874-.1,5.066-.1a63.48,63.48,0,0,1,7.611.306,2.037,2.037,0,0,1,1.52,1.045l1.828,3.349h.518a.575.575,0,0,1,.573-.541h.015a1.849,1.849,0,0,1,1.724,1.182h0a.288.288,0,0,1-.269.392h-1.43a5.1,5.1,0,0,1,2.5,4.386v3.623a2.442,2.442,0,0,1-2.442,2.441h-2.174a3.348,3.348,0,0,1-1.773-.514,1.394,1.394,0,0,1-1.186.666H465.723A14.376,14.376,0,1,0,478.3,455.194Zm8.252,22.509a1.231,1.231,0,0,1-1.231,1.231H483.4a1.231,1.231,0,0,1-1.231-1.231v-.718h4.381Z" transform="translate(-464.6 -455.194)"/><path class="b" d="M481.19,471.354l-1.577-2.892a1.375,1.375,0,0,0-1.021-.7,62.427,62.427,0,0,0-7.521-.3c-2.569,0-4.37.057-5.628.133a14.327,14.327,0,0,0-2.143,4.168h17.65A.274.274,0,0,0,481.19,471.354Z" transform="translate(-463.3 -461.777)"/><path class="b" d="M499.847,494.838a.439.439,0,0,0-.422.573,1.769,1.769,0,0,0,1.673,1.2H502.9a.633.633,0,0,0,.633-.633v-.5a.633.633,0,0,0-.633-.633Z" transform="translate(-482.676 -476.471)"/><path class="b" d="M469.3,494.363a.3.3,0,0,0-.266.436l.075.147a.957.957,0,0,0,.853.522H478.3a.958.958,0,0,0,.853-.522l.075-.147a.3.3,0,0,0-.266-.436Z" transform="translate(-466.357 -476.216)"/><path class="b" d="M503.032,482.125a1.373,1.373,0,0,0-1.373,1.374v2.06a.327.327,0,0,0,.41.316l2.074-.547a.352.352,0,0,0,.263-.341V483.5A1.373,1.373,0,0,0,503.032,482.125Z" transform="translate(-483.887 -469.648)"/></g><g transform="translate(28.669 1.806)"><path class="a" d="M220.24,482.527q-1.339.441-2.77.762a26.3,26.3,0,0,1-3.017.486,33.033,33.033,0,0,1-3.4.165,28.65,28.65,0,0,1-7.089-.826,16.628,16.628,0,0,1-5.576-2.485,11.666,11.666,0,0,1-3.641-4.145,13.593,13.593,0,0,1,0-11.61,11.672,11.672,0,0,1,3.641-4.146,16.637,16.637,0,0,1,5.576-2.485,28.673,28.673,0,0,1,7.089-.825,33.038,33.038,0,0,1,3.4.164,26.289,26.289,0,0,1,3.017.486q1.43.321,2.77.761t2.659.991v6.126q-1.045-.568-2.2-1.128a19.8,19.8,0,0,0-2.549-1.009,22.051,22.051,0,0,0-3.063-.733,22.525,22.525,0,0,0-3.76-.284,18.2,18.2,0,0,0-5.328.66,9.332,9.332,0,0,0-3.384,1.761,6.049,6.049,0,0,0-1.779,2.522,8.594,8.594,0,0,0-.513,2.943,9.058,9.058,0,0,0,.22,1.99,6.359,6.359,0,0,0,.733,1.852,6.681,6.681,0,0,0,1.339,1.6,7.6,7.6,0,0,0,2.054,1.265,13.261,13.261,0,0,0,2.871.835,21.049,21.049,0,0,0,3.788.3,24.031,24.031,0,0,0,3.76-.266,21.317,21.317,0,0,0,3.063-.706,18.909,18.909,0,0,0,2.549-1q1.156-.559,2.2-1.147v6.126Q221.579,482.087,220.24,482.527Z" transform="translate(-193.443 -457.418)"/><path class="a" d="M289.92,483.473V481a20.559,20.559,0,0,1-2.8,1.265,27.374,27.374,0,0,1-3.109.935,27.7,27.7,0,0,1-3.329.578,31.082,31.082,0,0,1-3.457.192,19.751,19.751,0,0,1-3.934-.385,10.864,10.864,0,0,1-3.366-1.248,6.881,6.881,0,0,1-2.356-2.256,6.209,6.209,0,0,1-.89-3.411,6.467,6.467,0,0,1,1.394-4.246,9.9,9.9,0,0,1,4.255-2.778,33.345,33.345,0,0,1,7.236-1.67q4.374-.587,10.353-.916v-.532a2.592,2.592,0,0,0-.33-1.238,2.811,2.811,0,0,0-1.2-1.082,8.643,8.643,0,0,0-2.385-.761,20.892,20.892,0,0,0-3.861-.293,34.631,34.631,0,0,0-3.659.192q-1.807.193-3.485.523t-3.182.77q-1.5.441-2.733.917V459.5q1.284-.331,2.879-.642t3.32-.541q1.723-.229,3.485-.367t3.375-.138a30.588,30.588,0,0,1,5.851.523,15.17,15.17,0,0,1,4.613,1.623,8.559,8.559,0,0,1,3.026,2.788,7.236,7.236,0,0,1,1.092,4.017v16.709Zm0-11.5q-3.925.147-6.667.422t-4.558.642a16.612,16.612,0,0,0-2.852.789,5.769,5.769,0,0,0-1.55.862,1.856,1.856,0,0,0-.633.881,3.1,3.1,0,0,0-.119.807,1.683,1.683,0,0,0,.238.853,1.99,1.99,0,0,0,.835.725,5.733,5.733,0,0,0,1.586.5,14.063,14.063,0,0,0,2.494.183,20.442,20.442,0,0,0,3.265-.257,21.428,21.428,0,0,0,3.026-.706,19.183,19.183,0,0,0,2.687-1.064,16.444,16.444,0,0,0,2.247-1.312Z" transform="translate(-232.75 -457.63)"/><path class="a" d="M370.7,463.516q-.523-.156-1.219-.312t-1.532-.266a13.137,13.137,0,0,0-1.715-.11,12.519,12.519,0,0,0-3.421.449,14.555,14.555,0,0,0-2.962,1.193,17.156,17.156,0,0,0-2.558,1.687,26.359,26.359,0,0,0-2.174,1.935v15.169h-6.8v-25.2h6.8v4.09q1.229-.917,2.522-1.77a21.536,21.536,0,0,1,2.7-1.514,16.386,16.386,0,0,1,2.962-1.055,13.4,13.4,0,0,1,3.3-.394q.66,0,1.348.064t1.339.156q.651.092,1.22.2t.991.22v5.7Q371.222,463.672,370.7,463.516Z" transform="translate(-276.561 -457.418)"/><path class="a" d="M430.043,463.516q-.523-.156-1.22-.312t-1.532-.266a13.131,13.131,0,0,0-1.715-.11,12.521,12.521,0,0,0-3.421.449,14.552,14.552,0,0,0-2.962,1.193,17.16,17.16,0,0,0-2.559,1.687,26.34,26.34,0,0,0-2.173,1.935v15.169h-6.8v-25.2h6.8v4.09q1.229-.917,2.522-1.77a21.5,21.5,0,0,1,2.7-1.514,16.377,16.377,0,0,1,2.962-1.055,13.4,13.4,0,0,1,3.3-.394q.66,0,1.348.064t1.339.156q.65.092,1.22.2t.99.22v5.7Q430.565,463.672,430.043,463.516Z" transform="translate(-308.411 -457.418)"/></g><g transform="translate(0)"><path class="b" d="M143.991,479.385l-.4,1.657q-1.823.718-2.909,1.1a7.694,7.694,0,0,1-2.522.377,5.027,5.027,0,0,1-3.434-1.077A3.48,3.48,0,0,1,133.5,478.7a9.591,9.591,0,0,1,.092-1.317q.091-.671.294-1.519l1.52-5.376q.2-.774.342-1.464a6.468,6.468,0,0,0,.139-1.262,1.946,1.946,0,0,0-.424-1.435,2.4,2.4,0,0,0-1.625-.405,4.246,4.246,0,0,0-1.209.184q-.619.185-1.061.35l.405-1.657q1.493-.607,2.857-1.04a8.55,8.55,0,0,1,2.581-.433,4.92,4.92,0,0,1,3.382,1.059,3.514,3.514,0,0,1,1.188,2.752q0,.35-.083,1.233a8.348,8.348,0,0,1-.3,1.62l-1.514,5.357a14.926,14.926,0,0,0-.333,1.473,7.831,7.831,0,0,0-.147,1.252,1.8,1.8,0,0,0,.478,1.455,2.684,2.684,0,0,0,1.655.386,4.748,4.748,0,0,0,1.25-.193A6.881,6.881,0,0,0,143.991,479.385Zm.386-22.479a3.139,3.139,0,0,1-1.058,2.384,3.805,3.805,0,0,1-5.109,0,3.206,3.206,0,0,1,0-4.778,3.78,3.78,0,0,1,5.109,0A3.168,3.168,0,0,1,144.378,456.906Z" transform="translate(-131.564 -453.519)"/><path class="b" d="M176.131,453.813l-4.951,21.54q-.129.534-.3,1.418a7.5,7.5,0,0,0-.175,1.307,1.7,1.7,0,0,0,.532,1.455,3.064,3.064,0,0,0,1.76.386,5.562,5.562,0,0,0,1.245-.193,7.271,7.271,0,0,0,1.117-.341l-.4,1.657q-1.823.718-2.982,1.1a8.512,8.512,0,0,1-2.633.377,5.21,5.21,0,0,1-3.479-1.077,3.427,3.427,0,0,1-1.27-2.733,8.8,8.8,0,0,1,.12-1.418q.12-.736.267-1.418l3.976-17.287c.049-.208.086-.405.111-.589a3.669,3.669,0,0,0,.037-.46,2.117,2.117,0,0,0-.221-1.049,1.638,1.638,0,0,0-.662-.626,3.183,3.183,0,0,0-1.013-.331q-.571-.092-1.325-.166l.332-1.362,9.721-.479Z" transform="translate(-149.287 -453.519)"/></g></g></g></svg>